<?xml version="1.0" encoding="UTF-8"?>
<svg xmlns="http://www.w3.org/2000/svg" viewBox="0 0 1000 1380" width="100%" height="100%" role="img" aria-label="Official cartographic vector map of Bangladesh highlighting Bogura district">
  <!-- Bangladesh National Silhouette — Clean Unified Vector in Brand Cream (#FCE08B) -->
  <path id="bangladesh-territory" fill="#FCE08B" d="M887.9 1323.9 L885.1 1322.0 L883.1 1323.5 L882.4 1326.1 L884.3 1329.1 L885.5 1330.4 L885.6 1332.4 L886.1 1333.3 L887.1 1333.2 L887.3 1331.1 L887.1 1326.2 L887.3 1324.9 L887.9 1323.9 Z M305.6 1108.0 L306.5 1104.1 L304.1 1100.4 L303.7 1099.0 L300.3 1094.8 L297.6 1095.2 L298.0 1103.0 L300.1 1106.1 L303.6 1108.3 L305.6 1108.0 Z M804.4 1086.4 L806.6 1080.0 L806.5 1067.6 L804.8 1063.4 L804.4 1058.8 L801.2 1056.7 L792.7 1059.8 L793.9 1064.9 L797.0 1068.8 L796.4 1073.0 L796.2 1079.0 L794.3 1089.0 L795.7 1093.2 L797.9 1094.1 L804.4 1086.4 Z M540.7 1074.4 L542.2 1072.5 L543.9 1069.3 L544.8 1066.3 L544.9 1062.2 L543.8 1057.6 L542.1 1053.0 L540.5 1054.4 L536.1 1060.0 L533.1 1065.2 L532.4 1068.1 L534.3 1073.3 L537.7 1074.7 L540.7 1074.4 Z M562.6 1062.2 L563.4 1059.3 L562.8 1056.9 L561.2 1054.7 L559.2 1052.8 L557.8 1053.7 L555.0 1057.7 L555.0 1059.8 L557.8 1062.0 L560.6 1063.4 L562.6 1062.2 Z M573.7 1050.6 L574.8 1048.4 L573.3 1046.7 L570.4 1044.6 L568.9 1045.7 L567.9 1047.6 L567.8 1049.7 L569.0 1050.9 L571.9 1051.0 L573.7 1050.6 Z M524.4 1056.0 L526.0 1049.2 L525.8 1042.9 L523.6 1036.5 L517.3 1031.6 L510.4 1029.2 L506.3 1036.7 L503.4 1046.0 L501.2 1051.0 L500.5 1055.3 L496.0 1070.0 L494.5 1076.6 L496.0 1080.3 L500.0 1078.1 L501.3 1072.8 L506.0 1059.8 L507.2 1058.9 L510.3 1059.8 L517.8 1062.9 L521.4 1061.0 L524.4 1056.0 Z M534.8 1050.8 L537.0 1046.8 L540.7 1043.6 L543.4 1038.6 L543.9 1034.2 L542.7 1030.5 L539.4 1028.1 L535.4 1029.5 L532.1 1034.4 L531.6 1039.8 L533.0 1051.2 L534.8 1050.8 Z M621.8 1006.5 L621.5 997.6 L621.0 991.9 L623.1 984.8 L626.4 976.5 L627.2 971.9 L626.7 969.4 L623.1 965.4 L622.6 965.6 L621.0 972.7 L618.0 979.7 L615.0 992.7 L613.7 1002.2 L619.3 1014.1 L621.5 1014.3 L621.8 1006.5 Z M675.6 903.5 L675.0 909.3 L677.4 918.3 L690.5 925.6 L691.4 915.4 L689.9 909.9 L678.8 903.8 L675.6 903.8 L675.6 903.5 Z M721.1 914.0 L713.6 904.3 L695.2 899.1 L707.1 914.5 L708.3 928.8 L705.4 944.0 L723.2 956.0 L728.1 964.4 L730.2 968.5 L741.3 958.9 L736.0 934.1 L727.0 924.2 L724.1 917.8 L720.6 914.8 L720.3 915.1 L721.1 914.0 Z M639.7 887.9 L638.0 894.2 L643.8 903.8 L643.4 915.2 L648.8 920.6 L659.6 920.9 L666.4 911.8 L661.7 900.8 L651.6 893.1 L650.1 890.5 L649.4 890.7 L639.7 887.9 Z M690.3 894.8 L689.1 890.3 L677.6 884.0 L678.5 881.9 L678.3 881.7 L667.9 878.9 L666.7 883.6 L677.0 891.3 L685.4 895.9 L690.3 894.8 Z M691.8 878.7 L697.2 885.8 L703.0 888.8 L704.1 885.5 L698.1 878.9 L698.1 879.3 L691.8 878.7 Z M557.6 1042.7 L560.2 1041.3 L563.5 1038.7 L567.5 1036.6 L576.3 1027.8 L581.3 1025.9 L585.3 1022.9 L588.2 1018.1 L590.7 1015.0 L593.3 1013.4 L596.2 1008.2 L597.1 998.9 L597.3 987.4 L598.6 980.7 L601.6 974.6 L603.3 969.2 L602.6 958.5 L606.3 950.4 L607.6 938.4 L598.6 929.4 L596.6 922.3 L590.8 916.1 L584.8 910.9 L578.0 882.5 L575.3 874.3 L571.3 874.3 L571.7 874.4 L562.5 875.8 L550.6 886.6 L545.2 896.1 L544.1 901.5 L546.3 908.5 L552.5 915.8 L555.8 921.8 L557.1 931.5 L559.3 939.4 L562.3 945.6 L565.2 957.0 L565.8 964.3 L565.5 985.9 L563.9 993.8 L556.6 1003.5 L550.9 1009.5 L549.8 1015.1 L553.1 1019.2 L554.9 1022.7 L553.3 1029.2 L552.1 1032.5 L553.6 1037.0 L554.0 1041.5 L555.2 1042.8 L557.6 1042.7 Z M398.1 320.2 L396.9 315.9 L396.5 310.3 L398.2 305.3 L399.6 302.9 L401.6 288.4 L401.1 285.2 L401.8 279.5 L403.9 275.3 L405.2 270.1 L404.6 267.7 L403.1 264.6 L403.3 261.6 L404.0 259.0 L406.0 255.0 L406.0 253.3 L403.5 250.5 L400.1 242.8 L397.3 238.7 L396.7 236.2 L397.9 234.5 L399.8 232.9 L402.0 230.4 L401.1 225.6 L398.5 222.5 L395.9 217.7 L396.6 215.1 L399.4 211.7 L400.4 207.1 L402.3 204.8 L405.2 202.4 L407.2 199.9 L409.1 196.8 L406.4 194.8 L399.1 192.1 L397.0 189.9 L402.2 187.5 L403.9 184.6 L402.9 182.3 L399.0 182.5 L397.5 182.1 L395.8 179.9 L394.9 177.1 L394.6 174.6 L391.4 172.3 L389.6 170.3 L389.1 167.3 L390.1 166.8 L391.6 164.5 L391.6 161.7 L388.3 156.3 L384.6 152.6 L381.7 147.6 L381.1 145.7 L380.1 144.7 L377.1 144.9 L372.2 147.5 L369.5 147.8 L368.3 146.8 L367.7 144.1 L367.5 139.5 L369.1 134.1 L369.0 132.2 L367.3 130.9 L364.3 129.9 L362.0 129.7 L357.7 134.9 L357.0 137.3 L355.2 140.4 L351.8 144.8 L350.5 148.8 L351.6 152.9 L352.0 156.4 L351.4 159.2 L353.5 164.0 L353.9 161.9 L356.2 156.5 L359.8 156.0 L360.5 160.5 L361.5 164.1 L361.7 167.2 L360.5 169.1 L355.1 170.0 L352.7 170.8 L349.9 171.7 L346.1 173.9 L346.1 179.7 L346.5 181.6 L349.0 183.7 L349.8 185.3 L349.6 187.5 L348.8 190.4 L347.1 191.0 L342.6 190.2 L341.7 188.2 L340.7 183.6 L339.6 182.2 L337.4 181.2 L331.5 181.5 L326.9 180.9 L325.7 180.2 L321.7 173.3 L318.7 170.1 L317.8 170.6 L316.8 172.1 L315.7 175.1 L314.9 178.6 L312.0 180.6 L310.0 180.3 L304.6 178.6 L301.1 176.3 L296.8 172.1 L289.2 169.6 L284.4 166.6 L286.4 164.1 L280.5 157.1 L276.6 154.4 L268.8 152.0 L266.5 150.4 L261.4 142.5 L262.7 138.3 L262.8 134.3 L261.6 128.4 L259.6 126.1 L255.0 122.2 L254.9 118.5 L258.5 116.7 L264.0 112.6 L262.3 111.4 L254.1 109.4 L251.8 107.9 L251.2 104.2 L251.8 99.9 L255.8 97.0 L251.6 94.0 L247.3 94.1 L242.7 93.5 L239.0 92.6 L235.1 88.5 L225.6 83.2 L222.7 83.9 L219.3 87.0 L216.7 88.6 L213.3 91.7 L212.4 97.4 L215.9 102.4 L218.0 104.7 L223.4 106.3 L227.4 104.5 L230.5 106.6 L230.5 109.0 L229.4 113.8 L229.5 116.6 L230.9 117.6 L232.4 116.0 L237.2 117.3 L241.6 122.1 L243.8 125.4 L244.3 128.7 L242.1 130.0 L238.6 130.2 L226.9 129.7 L223.7 128.7 L221.5 126.0 L217.9 120.6 L215.5 119.0 L212.6 118.9 L209.7 120.9 L207.4 124.7 L207.3 130.2 L206.7 133.6 L205.0 133.5 L201.8 130.9 L198.5 127.3 L197.2 124.6 L197.1 119.7 L198.2 115.9 L185.5 112.3 L186.5 108.0 L185.4 104.7 L180.4 104.9 L176.2 105.9 L173.1 102.9 L175.9 101.8 L175.0 96.1 L174.2 94.4 L170.0 94.1 L166.1 91.9 L161.8 88.2 L159.8 84.9 L159.1 82.0 L156.6 76.8 L154.8 77.0 L153.1 80.4 L154.3 82.8 L153.5 84.4 L150.6 83.8 L148.1 82.3 L145.9 81.7 L144.1 76.7 L140.8 76.6 L139.9 72.0 L137.9 70.6 L135.0 72.2 L133.6 69.8 L132.7 65.7 L126.8 65.0 L122.3 63.5 L121.0 59.1 L120.8 47.5 L119.7 43.0 L111.6 51.4 L110.0 55.7 L107.6 64.3 L105.4 68.0 L102.2 70.6 L100.0 77.5 L100.5 82.1 L103.5 85.5 L107.0 85.3 L108.3 82.9 L109.0 79.6 L110.6 77.9 L114.0 78.0 L118.1 79.8 L119.0 81.2 L119.2 82.8 L122.7 83.6 L127.1 81.9 L129.9 84.6 L131.8 88.3 L132.6 92.8 L137.4 101.0 L135.3 103.5 L132.8 104.3 L130.7 101.3 L125.3 102.1 L122.7 104.9 L116.2 114.5 L110.6 115.3 L107.0 116.3 L104.7 119.8 L103.9 124.8 L104.8 129.2 L106.3 132.9 L102.9 136.8 L97.1 140.2 L89.2 142.0 L82.7 140.5 L80.8 143.4 L81.0 148.7 L74.8 151.5 L72.2 154.1 L69.6 158.4 L67.9 162.6 L70.8 166.7 L72.2 170.5 L71.7 175.9 L69.6 180.8 L61.8 182.5 L60.9 187.7 L59.4 192.5 L54.3 197.1 L53.5 201.7 L53.9 206.9 L55.3 209.2 L55.8 212.2 L55.3 215.2 L55.6 219.4 L58.4 223.5 L64.6 229.1 L67.6 230.1 L71.2 226.7 L72.5 224.1 L77.3 228.5 L80.4 228.1 L81.7 226.1 L82.1 223.2 L85.2 221.6 L88.3 225.6 L90.3 229.1 L94.4 230.5 L99.1 235.6 L101.0 238.8 L104.9 241.0 L109.1 247.4 L114.0 250.8 L119.0 253.2 L122.3 256.2 L123.6 261.8 L122.5 263.7 L124.6 270.0 L134.0 274.3 L136.0 278.4 L137.0 281.2 L138.8 283.2 L141.3 285.4 L146.0 288.3 L149.0 288.4 L152.7 287.8 L157.7 288.2 L160.9 289.0 L165.3 292.6 L170.2 293.8 L172.4 293.8 L175.9 292.6 L180.2 290.3 L183.2 290.2 L185.9 289.2 L187.2 281.8 L190.5 282.9 L192.4 284.8 L195.3 282.9 L196.7 288.1 L197.8 294.0 L198.0 297.0 L198.0 306.7 L198.8 310.3 L202.6 314.6 L209.7 326.0 L218.3 329.2 L227.0 331.1 L228.8 338.9 L223.9 342.1 L223.6 347.7 L222.0 357.7 L219.8 359.4 L216.9 359.8 L212.4 358.4 L204.2 353.8 L201.0 354.0 L198.5 355.1 L195.4 358.7 L192.1 358.8 L189.9 356.9 L175.5 352.1 L171.2 353.0 L164.2 353.6 L155.8 354.0 L152.3 359.4 L143.9 358.5 L142.4 356.8 L137.3 352.5 L135.4 352.3 L130.9 352.9 L126.5 355.6 L126.4 360.4 L128.6 362.8 L127.7 366.5 L122.8 369.8 L123.3 372.9 L124.3 376.0 L124.5 380.4 L123.4 381.4 L120.8 381.9 L120.7 385.7 L123.6 389.3 L124.1 392.7 L121.3 394.9 L118.7 395.8 L117.7 401.3 L114.5 406.7 L109.4 409.1 L103.9 411.1 L102.4 414.4 L102.7 417.6 L104.2 421.3 L103.9 424.7 L100.4 425.6 L96.9 426.0 L94.3 424.9 L89.9 422.4 L88.5 420.3 L85.3 413.7 L82.6 409.2 L77.7 406.3 L72.8 405.6 L62.5 412.8 L61.7 415.3 L66.7 418.8 L69.9 426.7 L69.2 431.1 L66.4 433.9 L58.3 438.1 L55.8 444.6 L51.7 446.4 L49.7 449.4 L48.1 458.4 L44.5 462.2 L42.4 466.0 L45.0 468.8 L49.8 476.9 L53.3 481.7 L57.5 486.6 L56.9 494.9 L57.5 497.5 L64.9 504.8 L68.4 506.2 L69.4 507.6 L75.3 512.7 L80.1 513.6 L86.6 513.4 L91.2 514.4 L96.1 515.9 L110.6 526.4 L130.9 538.0 L134.0 539.9 L139.5 544.4 L143.0 546.0 L149.1 544.3 L153.9 544.1 L157.4 546.2 L158.8 547.7 L161.9 548.6 L165.3 546.5 L169.9 541.5 L174.0 544.1 L177.5 547.0 L180.8 552.8 L182.1 556.6 L182.3 560.5 L181.3 565.7 L178.3 573.4 L175.7 578.2 L175.9 584.8 L177.3 593.3 L183.0 598.5 L184.7 602.5 L181.8 610.2 L182.9 619.2 L185.3 630.2 L183.2 632.9 L178.2 635.2 L168.6 641.1 L164.5 641.2 L161.2 638.0 L158.2 638.5 L155.0 642.3 L158.4 649.0 L159.3 655.8 L156.7 658.7 L151.6 660.0 L152.4 662.4 L155.5 667.1 L152.8 672.3 L151.2 676.7 L152.5 679.6 L153.7 684.7 L147.9 685.6 L151.9 691.6 L164.4 699.5 L176.3 714.7 L188.2 722.6 L191.5 730.5 L184.2 740.5 L181.6 759.6 L181.8 772.2 L186.9 776.2 L194.0 780.0 L198.0 780.0 L198.0 775.1 L201.8 774.9 L221.0 782.4 L226.4 783.5 L229.7 784.6 L228.6 788.4 L226.7 793.0 L220.8 800.3 L210.2 805.2 L210.5 810.9 L215.9 820.9 L209.0 832.8 L208.8 838.1 L209.0 840.3 L215.5 844.9 L209.4 848.2 L223.0 857.5 L226.8 862.6 L225.9 867.2 L219.6 877.0 L219.2 884.1 L226.2 891.8 L228.1 893.4 L227.0 899.1 L222.4 903.9 L224.0 907.7 L228.6 913.7 L226.7 917.5 L227.0 923.1 L231.6 928.0 L236.5 942.4 L236.2 948.3 L234.0 965.1 L236.7 979.4 L242.4 987.3 L247.3 991.9 L251.9 997.8 L254.0 1008.7 L252.2 1011.4 L247.3 1016.2 L242.4 1021.9 L245.4 1029.2 L252.5 1039.7 L254.5 1044.8 L254.5 1063.8 L264.6 1087.2 L268.4 1088.4 L275.1 1089.1 L277.7 1092.2 L277.4 1099.6 L281.9 1103.5 L282.4 1106.1 L278.3 1110.6 L275.3 1115.2 L276.5 1119.4 L279.5 1122.0 L284.3 1121.5 L288.3 1119.4 L294.4 1117.7 L294.9 1114.0 L293.0 1108.8 L293.8 1107.7 L294.4 1103.6 L293.8 1092.8 L294.6 1087.7 L299.5 1079.0 L299.8 1075.8 L302.2 1064.7 L309.2 1063.9 L309.0 1068.2 L303.4 1080.3 L304.6 1084.2 L307.2 1087.0 L309.6 1090.5 L314.3 1099.8 L315.5 1104.5 L321.6 1103.5 L324.0 1100.7 L325.9 1097.1 L328.5 1094.3 L330.0 1092.0 L332.5 1086.2 L327.0 1081.2 L324.9 1076.9 L328.2 1072.7 L330.4 1068.5 L335.9 1060.5 L340.5 1042.7 L344.7 1044.0 L346.0 1056.7 L343.9 1066.8 L342.6 1077.4 L342.6 1089.6 L348.1 1099.8 L350.2 1105.7 L358.3 1104.0 L357.0 1098.1 L354.5 1094.7 L373.1 1094.3 L375.2 1090.1 L370.5 1085.8 L367.1 1079.1 L370.9 1079.1 L377.7 1080.3 L394.6 1081.2 L403.1 1079.1 L407.3 1071.9 L406.7 1056.8 L405.3 1052.8 L405.3 1046.8 L407.2 1041.7 L405.6 1030.0 L405.6 1023.8 L411.7 1018.7 L411.7 1008.7 L412.2 999.2 L416.1 1005.4 L418.3 1015.1 L417.8 1021.1 L418.3 1028.4 L422.6 1038.1 L424.0 1042.7 L428.3 1044.9 L429.7 1043.6 L429.9 1031.7 L435.1 1025.2 L441.6 1023.5 L435.6 1039.8 L436.4 1043.0 L447.3 1046.8 L448.6 1050.1 L446.4 1052.8 L438.6 1054.4 L437.2 1055.7 L437.4 1064.8 L440.0 1067.6 L440.7 1070.9 L438.1 1075.6 L444.7 1078.2 L450.1 1079.0 L454.0 1081.3 L455.6 1083.9 L460.1 1086.0 L464.9 1087.2 L468.9 1087.0 L474.6 1085.4 L478.3 1082.7 L481.9 1082.0 L484.9 1079.7 L484.9 1074.5 L485.6 1068.0 L488.7 1063.3 L490.1 1060.2 L491.4 1059.1 L495.8 1054.4 L495.8 1040.2 L497.2 1036.1 L506.0 1025.9 L508.9 1021.9 L514.5 1022.6 L520.7 1024.1 L527.3 1025.2 L533.4 1025.7 L537.3 1023.1 L542.2 1018.6 L541.8 1011.2 L550.6 984.8 L559.5 960.3 L558.7 949.3 L554.0 946.7 L548.1 944.2 L547.3 934.9 L548.2 928.0 L539.6 920.6 L535.4 917.5 L533.2 909.0 L532.1 902.7 L530.9 898.1 L531.8 892.9 L537.2 891.5 L554.0 874.4 L565.9 863.9 L566.3 858.7 L564.7 853.3 L557.4 848.5 L540.3 840.1 L531.9 836.6 L526.0 832.8 L513.8 823.6 L513.8 823.0 L520.1 820.4 L530.2 809.0 L536.5 810.9 L542.5 819.5 L548.3 816.6 L559.8 830.8 L565.4 836.7 L572.7 840.5 L587.0 856.8 L593.7 881.3 L617.0 921.5 L622.5 927.1 L631.9 934.7 L637.1 946.3 L640.6 962.4 L640.9 972.0 L637.4 992.4 L635.1 999.1 L633.2 1016.4 L636.4 1021.9 L653.2 1018.2 L658.7 1004.6 L656.9 990.9 L656.4 974.5 L656.9 959.9 L655.5 950.8 L650.5 941.2 L644.1 933.5 L633.0 925.3 L636.8 915.4 L638.3 907.3 L634.5 893.3 L625.7 865.5 L626.3 860.0 L642.4 872.2 L656.1 870.5 L663.1 863.5 L692.8 876.0 L698.7 867.9 L703.3 866.1 L710.6 877.2 L723.8 877.8 L732.8 893.5 L740.4 901.4 L746.8 907.5 L750.3 911.9 L755.6 920.1 L760.5 925.6 L767.5 937.3 L772.2 948.4 L777.1 961.8 L778.6 977.0 L797.9 1009.6 L809.2 1031.2 L813.3 1059.8 L811.3 1086.1 L805.7 1103.9 L807.7 1118.5 L806.8 1128.6 L808.2 1147.2 L823.7 1147.2 L827.8 1148.2 L826.0 1165.0 L826.4 1173.2 L831.0 1182.3 L836.0 1198.3 L837.4 1210.6 L839.6 1219.7 L858.3 1245.7 L866.1 1259.4 L872.5 1279.0 L882.5 1294.5 L896.6 1310.9 L895.3 1299.6 L890.8 1289.3 L887.4 1277.9 L886.1 1272.9 L886.1 1268.4 L885.0 1263.2 L879.7 1252.7 L879.8 1248.8 L882.4 1245.6 L882.4 1241.5 L881.1 1237.5 L874.6 1230.2 L867.1 1219.3 L867.2 1216.5 L867.9 1213.7 L871.7 1210.1 L871.4 1199.1 L870.0 1184.4 L873.4 1181.0 L876.0 1179.7 L878.4 1176.2 L879.2 1170.9 L882.4 1165.3 L888.2 1166.4 L891.1 1165.7 L892.6 1162.0 L893.0 1158.2 L895.3 1154.9 L897.3 1153.7 L899.9 1153.7 L902.7 1155.8 L904.6 1158.6 L910.0 1170.0 L914.5 1177.1 L916.2 1178.8 L919.5 1179.1 L924.7 1179.1 L927.4 1178.6 L931.8 1176.7 L933.9 1175.2 L937.6 1177.1 L938.4 1181.8 L938.2 1185.1 L938.9 1189.8 L941.9 1198.2 L943.4 1200.6 L945.3 1201.7 L950.1 1202.3 L952.2 1201.2 L954.8 1198.4 L960.6 1193.7 L962.1 1189.6 L960.0 1185.9 L958.7 1180.3 L957.6 1177.1 L957.2 1173.2 L956.3 1170.0 L953.7 1155.6 L952.4 1151.3 L949.0 1144.4 L948.8 1136.2 L945.9 1091.3 L947.1 1082.8 L949.8 1073.7 L953.6 1064.4 L952.4 1055.1 L946.9 1036.3 L945.2 1029.4 L939.1 1011.4 L945.4 1015.3 L945.2 1003.9 L946.6 995.6 L944.8 987.4 L941.0 975.7 L938.9 960.8 L934.1 932.7 L932.0 923.6 L931.3 915.3 L932.8 908.8 L930.5 886.0 L923.6 878.7 L918.0 875.0 L918.5 858.6 L916.2 851.0 L907.4 845.1 L903.0 838.9 L902.1 833.8 L902.7 823.9 L905.0 818.6 L904.4 812.3 L898.2 797.7 L897.3 781.3 L897.3 775.5 L898.6 771.6 L901.2 767.3 L905.0 762.3 L899.5 756.3 L902.3 746.9 L896.0 735.9 L890.6 727.9 L889.9 725.6 L889.4 715.9 L887.6 704.7 L882.9 692.5 L882.0 688.4 L882.1 683.3 L883.1 679.9 L883.5 675.9 L881.7 671.9 L878.4 668.9 L874.8 672.2 L873.1 675.8 L873.0 679.6 L871.1 687.3 L869.9 687.5 L868.2 682.0 L869.2 678.2 L869.2 673.5 L867.0 669.8 L863.7 667.4 L860.0 666.9 L855.6 668.4 L851.2 670.8 L846.9 674.5 L844.3 678.2 L843.5 680.7 L841.0 684.2 L840.6 687.2 L834.4 686.8 L829.7 683.5 L825.2 672.3 L823.2 669.3 L817.6 668.9 L811.4 674.3 L812.5 681.6 L815.0 690.4 L816.3 701.2 L819.6 712.2 L817.6 725.1 L817.0 733.5 L810.5 731.8 L803.2 732.4 L801.2 736.9 L793.9 746.4 L787.7 757.4 L785.8 762.3 L783.4 766.2 L782.3 770.3 L783.6 778.3 L786.0 784.5 L789.7 788.2 L790.9 793.3 L791.4 797.4 L791.1 801.0 L789.2 805.9 L786.5 809.8 L783.4 812.7 L778.0 819.5 L776.4 822.9 L774.1 825.8 L771.5 828.4 L767.3 830.9 L760.2 831.5 L757.5 833.1 L754.9 834.2 L752.5 832.9 L750.8 831.6 L746.6 834.0 L744.5 834.7 L740.4 832.8 L735.7 826.2 L734.4 815.9 L733.6 812.2 L732.6 802.6 L730.7 794.1 L731.9 788.2 L724.5 778.9 L716.6 771.6 L712.9 770.2 L709.7 770.9 L708.1 775.0 L707.9 779.9 L706.5 785.4 L706.2 794.2 L706.8 798.8 L710.0 808.4 L709.6 811.3 L707.8 811.2 L704.4 810.0 L702.0 808.3 L698.9 804.1 L694.9 794.5 L693.9 789.2 L693.7 775.0 L691.3 764.2 L689.0 759.6 L688.4 755.3 L686.9 750.5 L676.2 723.8 L666.6 711.2 L661.3 698.1 L660.2 691.1 L667.5 685.0 L666.9 675.6 L663.1 668.6 L664.0 662.5 L671.3 662.5 L674.8 660.8 L674.5 654.9 L676.6 636.6 L675.5 625.0 L682.2 618.9 L687.3 613.3 L691.9 614.1 L695.9 615.5 L701.6 615.8 L705.9 611.7 L706.7 610.3 L708.1 603.9 L708.4 600.6 L706.7 595.2 L704.3 588.7 L708.1 585.2 L712.7 585.5 L719.5 588.7 L722.7 590.9 L730.3 594.4 L736.2 596.3 L740.6 596.8 L752.7 595.2 L754.6 588.4 L755.5 580.9 L754.1 568.9 L757.3 567.6 L765.2 573.0 L777.1 579.5 L780.3 579.5 L781.7 577.1 L779.8 570.8 L778.5 564.1 L780.3 561.6 L787.4 564.1 L798.5 572.5 L803.6 575.2 L807.1 573.8 L810.1 570.0 L811.5 566.5 L812.0 561.1 L812.0 557.0 L811.5 551.4 L810.1 543.2 L810.9 540.3 L817.1 537.3 L824.5 538.1 L828.5 534.9 L824.5 528.4 L828.2 527.0 L835.3 528.1 L844.7 528.6 L847.2 527.0 L852.1 525.4 L857.5 522.9 L856.1 518.3 L855.0 511.0 L852.9 504.3 L851.9 499.3 L854.4 495.6 L861.5 489.3 L864.5 484.9 L865.2 481.4 L865.1 476.1 L867.7 472.2 L872.3 458.2 L875.6 454.4 L881.7 446.5 L881.7 435.2 L879.7 430.3 L883.5 425.7 L889.6 424.1 L896.9 423.6 L908.4 423.5 L915.9 422.8 L919.9 421.1 L922.4 413.6 L922.5 407.5 L920.7 402.7 L911.5 398.8 L910.8 392.0 L904.2 386.6 L895.9 382.4 L893.1 377.5 L892.2 374.4 L887.8 375.8 L882.4 375.5 L875.8 373.5 L870.5 370.7 L867.5 367.1 L855.6 359.9 L849.1 354.7 L843.2 351.4 L826.5 355.6 L819.0 356.7 L814.7 356.5 L796.2 359.3 L783.8 357.8 L777.7 357.5 L773.0 358.4 L765.7 363.3 L762.1 364.8 L758.0 364.2 L752.9 362.4 L745.5 358.7 L739.1 360.2 L731.8 365.1 L727.5 365.0 L715.7 361.1 L711.1 358.2 L705.9 355.6 L695.2 358.6 L691.6 355.3 L683.5 350.6 L678.1 350.7 L667.8 353.0 L656.1 352.9 L645.2 354.0 L634.8 354.5 L630.0 356.0 L624.6 360.3 L618.7 362.8 L602.6 359.5 L585.7 357.3 L575.2 359.0 L568.0 360.7 L562.9 359.5 L556.1 359.0 L547.3 359.5 L540.9 359.0 L531.2 359.5 L524.8 361.1 L507.9 361.1 L496.1 358.6 L489.3 355.7 L480.0 352.3 L457.6 345.9 L447.0 341.7 L439.4 337.5 L428.4 332.0 L418.7 328.2 L412.4 329.4 L403.9 332.0 L398.8 329.9 L398.4 320.6 L398.1 320.2 Z" />
  <!-- Bogura District — Synchronized Level of Detail in Brand Brown (#763C1E) -->
  <path id="district-bogura" fill="#763C1E" d="M362.8 387.4 L336.7 388.8 L331.3 384.2 L324.4 385.5 L324.3 381.1 L319.0 383.4 L316.6 379.5 L311.8 387.4 L300.5 375.9 L300.5 370.9 L294.8 371.6 L283.8 383.4 L281.7 393.2 L277.5 391.3 L272.8 398.6 L272.5 410.0 L259.2 408.5 L260.3 405.8 L255.6 403.9 L251.7 413.3 L254.5 421.2 L250.1 422.5 L252.9 424.7 L238.2 430.4 L230.8 429.4 L232.9 435.5 L229.3 436.0 L231.7 440.3 L228.1 453.3 L233.2 453.3 L234.7 448.3 L244.5 443.2 L252.3 444.0 L254.3 455.2 L251.7 458.7 L260.9 459.7 L260.1 454.3 L264.9 454.4 L261.1 462.9 L267.9 467.7 L262.1 472.2 L264.7 480.7 L272.7 473.3 L279.5 488.7 L288.1 477.9 L300.0 484.6 L301.7 493.2 L318.9 492.8 L325.8 496.9 L335.4 493.7 L337.6 498.2 L339.8 492.3 L342.9 495.7 L351.7 494.4 L353.9 483.2 L343.4 480.6 L344.5 461.8 L358.1 465.9 L365.4 456.5 L368.2 445.0 L376.1 445.9 L379.1 441.4 L370.1 434.9 L365.4 421.9 L370.3 418.7 L362.8 387.4 Z" />
</svg>